<mxfile host="app.diagrams.net" modified="2023-07-05T21:49:52.980Z" agent="Mozilla/5.0 (X11; Linux x86_64) AppleWebKit/537.36 (KHTML, like Gecko) Chrome/114.0.0.0 Safari/537.36 Edg/114.0.1823.67" etag="LIZ9SBzH-6HJHE5WPDVT" version="21.6.1" type="github">
  <diagram name="Page-1" id="Ly5XRc1SLq-7P7jfqljN">
    <mxGraphModel dx="1580" dy="784" grid="1" gridSize="10" guides="1" tooltips="1" connect="1" arrows="1" fold="1" page="1" pageScale="1" pageWidth="827" pageHeight="1169" math="0" shadow="0">
      <root>
        <mxCell id="0" />
        <mxCell id="1" parent="0" />
        <mxCell id="RObz219bbi9aPZnH7XXk-33" value="Failed To Connect (click to inspect)" style="text;html=1;strokeColor=none;fillColor=none;align=center;verticalAlign=middle;whiteSpace=wrap;rounded=0;" vertex="1" parent="1">
          <mxGeometry x="1070" y="475" width="130" height="80" as="geometry" />
        </mxCell>
        <mxCell id="RObz219bbi9aPZnH7XXk-2" value="" style="rounded=1;whiteSpace=wrap;html=1;fillColor=none;" vertex="1" parent="1">
          <mxGeometry x="405" y="450" width="690" height="370" as="geometry" />
        </mxCell>
        <mxCell id="RObz219bbi9aPZnH7XXk-14" value="" style="rounded=0;whiteSpace=wrap;html=1;fillColor=none;" vertex="1" parent="1">
          <mxGeometry x="460" y="450" width="570" height="370" as="geometry" />
        </mxCell>
        <mxCell id="RObz219bbi9aPZnH7XXk-1" value="" style="rounded=1;whiteSpace=wrap;html=1;fillColor=none;" vertex="1" parent="1">
          <mxGeometry x="110" y="290" width="1280" height="680" as="geometry" />
        </mxCell>
        <mxCell id="RObz219bbi9aPZnH7XXk-3" value="Docker Instances" style="text;html=1;strokeColor=none;fillColor=none;align=center;verticalAlign=middle;whiteSpace=wrap;rounded=0;" vertex="1" parent="1">
          <mxGeometry x="730" y="410" width="60" height="30" as="geometry" />
        </mxCell>
        <UserObject label="172.217.31.3:80" link="http://172.217.31.3/" id="RObz219bbi9aPZnH7XXk-8">
          <mxCell style="edgeStyle=orthogonalEdgeStyle;rounded=0;orthogonalLoop=1;jettySize=auto;html=1;exitX=1;exitY=0.5;exitDx=0;exitDy=0;entryX=0;entryY=0.5;entryDx=0;entryDy=0;curved=1;" edge="1" parent="1" source="RObz219bbi9aPZnH7XXk-5" target="RObz219bbi9aPZnH7XXk-6">
            <mxGeometry x="-0.5135" y="-20" relative="1" as="geometry">
              <mxPoint as="offset" />
            </mxGeometry>
          </mxCell>
        </UserObject>
        <mxCell id="RObz219bbi9aPZnH7XXk-5" value="Client1&lt;br&gt;(64.233.160.0)" style="ellipse;whiteSpace=wrap;html=1;aspect=fixed;" vertex="1" parent="1">
          <mxGeometry x="180" y="370" width="80" height="80" as="geometry" />
        </mxCell>
        <mxCell id="RObz219bbi9aPZnH7XXk-19" style="edgeStyle=orthogonalEdgeStyle;rounded=0;orthogonalLoop=1;jettySize=auto;html=1;exitX=0.5;exitY=1;exitDx=0;exitDy=0;entryX=0;entryY=0.5;entryDx=0;entryDy=0;curved=1;" edge="1" parent="1" source="RObz219bbi9aPZnH7XXk-6" target="RObz219bbi9aPZnH7XXk-17">
          <mxGeometry relative="1" as="geometry" />
        </mxCell>
        <mxCell id="RObz219bbi9aPZnH7XXk-6" value="App1&lt;br&gt;&lt;br&gt;(192.0.0.3)" style="rounded=1;whiteSpace=wrap;html=1;" vertex="1" parent="1">
          <mxGeometry x="500" y="510" width="120" height="60" as="geometry" />
        </mxCell>
        <mxCell id="RObz219bbi9aPZnH7XXk-10" value="&lt;font style=&quot;font-size: 24px;&quot;&gt;Incoming Traffic&lt;/font&gt;" style="text;html=1;strokeColor=none;fillColor=none;align=center;verticalAlign=middle;whiteSpace=wrap;rounded=0;rotation=90;" vertex="1" parent="1">
          <mxGeometry x="350" y="615" width="188" height="40" as="geometry" />
        </mxCell>
        <mxCell id="RObz219bbi9aPZnH7XXk-13" value="&lt;font style=&quot;font-size: 24px;&quot;&gt;Outgoing Traffic&lt;/font&gt;" style="text;html=1;strokeColor=none;fillColor=none;align=center;verticalAlign=middle;whiteSpace=wrap;rounded=0;rotation=270;" vertex="1" parent="1">
          <mxGeometry x="980" y="615" width="188" height="40" as="geometry" />
        </mxCell>
        <mxCell id="RObz219bbi9aPZnH7XXk-20" style="edgeStyle=orthogonalEdgeStyle;rounded=0;orthogonalLoop=1;jettySize=auto;html=1;exitX=0.5;exitY=0;exitDx=0;exitDy=0;entryX=0;entryY=0.5;entryDx=0;entryDy=0;entryPerimeter=0;curved=1;" edge="1" parent="1" source="RObz219bbi9aPZnH7XXk-17" target="RObz219bbi9aPZnH7XXk-18">
          <mxGeometry relative="1" as="geometry" />
        </mxCell>
        <mxCell id="RObz219bbi9aPZnH7XXk-26" style="edgeStyle=orthogonalEdgeStyle;rounded=0;orthogonalLoop=1;jettySize=auto;html=1;exitX=1;exitY=0.25;exitDx=0;exitDy=0;entryX=0;entryY=0.5;entryDx=0;entryDy=0;curved=1;" edge="1" parent="1" source="RObz219bbi9aPZnH7XXk-17" target="RObz219bbi9aPZnH7XXk-24">
          <mxGeometry relative="1" as="geometry">
            <Array as="points">
              <mxPoint x="960" y="670" />
              <mxPoint x="960" y="540" />
            </Array>
          </mxGeometry>
        </mxCell>
        <mxCell id="RObz219bbi9aPZnH7XXk-27" style="edgeStyle=orthogonalEdgeStyle;rounded=0;orthogonalLoop=1;jettySize=auto;html=1;exitX=1;exitY=0.75;exitDx=0;exitDy=0;entryX=0;entryY=0.5;entryDx=0;entryDy=0;curved=1;" edge="1" parent="1" source="RObz219bbi9aPZnH7XXk-17" target="RObz219bbi9aPZnH7XXk-25">
          <mxGeometry relative="1" as="geometry">
            <Array as="points">
              <mxPoint x="930" y="700" />
              <mxPoint x="930" y="760" />
              <mxPoint x="1130" y="760" />
              <mxPoint x="1130" y="695" />
            </Array>
          </mxGeometry>
        </mxCell>
        <mxCell id="RObz219bbi9aPZnH7XXk-17" value="App2&lt;br&gt;(192.0.0.4)" style="rounded=1;whiteSpace=wrap;html=1;" vertex="1" parent="1">
          <mxGeometry x="640" y="655" width="120" height="60" as="geometry" />
        </mxCell>
        <mxCell id="RObz219bbi9aPZnH7XXk-18" value="DB" style="shape=cylinder3;whiteSpace=wrap;html=1;boundedLbl=1;backgroundOutline=1;size=15;" vertex="1" parent="1">
          <mxGeometry x="827" y="510" width="60" height="80" as="geometry" />
        </mxCell>
        <mxCell id="RObz219bbi9aPZnH7XXk-22" style="edgeStyle=orthogonalEdgeStyle;rounded=0;orthogonalLoop=1;jettySize=auto;html=1;exitX=1;exitY=0.5;exitDx=0;exitDy=0;entryX=0;entryY=0.75;entryDx=0;entryDy=0;curved=1;" edge="1" parent="1" source="RObz219bbi9aPZnH7XXk-21" target="RObz219bbi9aPZnH7XXk-17">
          <mxGeometry relative="1" as="geometry" />
        </mxCell>
        <mxCell id="RObz219bbi9aPZnH7XXk-23" style="edgeStyle=orthogonalEdgeStyle;rounded=0;orthogonalLoop=1;jettySize=auto;html=1;exitX=1;exitY=0;exitDx=0;exitDy=0;entryX=0;entryY=0.75;entryDx=0;entryDy=0;curved=1;" edge="1" parent="1" source="RObz219bbi9aPZnH7XXk-21" target="RObz219bbi9aPZnH7XXk-6">
          <mxGeometry relative="1" as="geometry" />
        </mxCell>
        <mxCell id="RObz219bbi9aPZnH7XXk-21" value="Client2&lt;br&gt;(64.233.160.0)" style="ellipse;whiteSpace=wrap;html=1;aspect=fixed;" vertex="1" parent="1">
          <mxGeometry x="180" y="570" width="80" height="80" as="geometry" />
        </mxCell>
        <mxCell id="RObz219bbi9aPZnH7XXk-24" value="Client1&lt;br&gt;(64.233.160.0)" style="ellipse;whiteSpace=wrap;html=1;aspect=fixed;" vertex="1" parent="1">
          <mxGeometry x="1211" y="500" width="80" height="80" as="geometry" />
        </mxCell>
        <mxCell id="RObz219bbi9aPZnH7XXk-25" value="Client1&lt;br&gt;(64.233.160.0)" style="ellipse;whiteSpace=wrap;html=1;aspect=fixed;" vertex="1" parent="1">
          <mxGeometry x="1211" y="655" width="80" height="80" as="geometry" />
        </mxCell>
        <mxCell id="RObz219bbi9aPZnH7XXk-30" value="&lt;font style=&quot;font-size: 24px;&quot;&gt;x&lt;/font&gt;" style="text;html=1;strokeColor=none;fillColor=none;align=center;verticalAlign=middle;whiteSpace=wrap;rounded=0;" vertex="1" parent="1">
          <mxGeometry x="1108" y="525" width="60" height="30" as="geometry" />
        </mxCell>
        <mxCell id="RObz219bbi9aPZnH7XXk-36" value="Failed To Connect (click to inspect)" style="text;html=1;strokeColor=none;fillColor=none;align=center;verticalAlign=middle;whiteSpace=wrap;rounded=0;" vertex="1" parent="1">
          <mxGeometry x="250" y="513" width="130" height="80" as="geometry" />
        </mxCell>
        <mxCell id="RObz219bbi9aPZnH7XXk-37" value="&lt;font style=&quot;font-size: 24px;&quot;&gt;x&lt;/font&gt;" style="text;html=1;strokeColor=none;fillColor=none;align=center;verticalAlign=middle;whiteSpace=wrap;rounded=0;" vertex="1" parent="1">
          <mxGeometry x="285" y="565" width="60" height="30" as="geometry" />
        </mxCell>
        <mxCell id="RObz219bbi9aPZnH7XXk-38" value="Create New Container" style="rounded=1;whiteSpace=wrap;html=1;" vertex="1" parent="1">
          <mxGeometry x="414" y="930" width="216" height="30" as="geometry" />
        </mxCell>
        <mxCell id="RObz219bbi9aPZnH7XXk-39" value="Generate Report" style="rounded=1;whiteSpace=wrap;html=1;" vertex="1" parent="1">
          <mxGeometry x="800" y="930" width="150" height="30" as="geometry" />
        </mxCell>
        <mxCell id="RObz219bbi9aPZnH7XXk-40" value="Go to Forwarding Rules" style="rounded=1;whiteSpace=wrap;html=1;" vertex="1" parent="1">
          <mxGeometry x="640" y="930" width="150" height="30" as="geometry" />
        </mxCell>
        <mxCell id="RObz219bbi9aPZnH7XXk-41" value="Export Configuration" style="rounded=1;whiteSpace=wrap;html=1;" vertex="1" parent="1">
          <mxGeometry x="958" y="930" width="142" height="30" as="geometry" />
        </mxCell>
      </root>
    </mxGraphModel>
  </diagram>
</mxfile>
